Coordinates
version=1
nRows=29
nColumns=22
inDegrees=yes

Units are S.I. units (second, meters, Newtons, ...)
If the header above contains a line with 'inDegrees', this indicates whether rotational values are in degrees (yes) or radians (no).

endheader
time	pelvis_tilt	pelvis_list	pelvis_rotation	pelvis_tx	pelvis_ty	pelvis_tz	hip_flexion_r	hip_adduction_r	hip_rotation_r	knee_angle_r	ankle_angle_r	subtalar_angle_r	hip_flexion_l	hip_adduction_l	hip_rotation_l	knee_angle_l	ankle_angle_l	subtalar_angle_l	lumbar_extension	lumbar_bending	lumbar_rotation
      1.28000000	      0.47142858	     -2.11998553	      4.83918892	     -0.60500490	      1.07504033	      1.15105408	     -0.30522399	      5.22999463	     -6.36263090	    -14.49643230	     16.61914291	     -4.74917259	      8.97202599	     -2.86984187	      5.33110363	    -31.79051664	     14.67108384	      1.80409712	     -4.33272626	      0.78794706	     -4.48341450
      1.29000000	      0.46103413	     -2.20752354	      4.93715963	     -0.60468322	      1.07484729	      1.15192794	     -0.32505838	      5.38517209	     -6.42548856	    -14.45414615	     16.64150147	     -4.71162707	      9.95582459	     -2.86221310	      5.54847463	    -33.49887633	     14.10269964	      2.06959852	     -4.55498029	      0.91072022	     -4.32933425
      1.30000000	      0.45459254	     -2.29303273	      5.02048700	     -0.60429244	      1.07466550	      1.15280411	     -0.35880414	      5.53612204	     -6.49106122	    -14.39948092	     16.65991424	     -4.64605996	     10.94984943	     -2.84607082	      5.74057562	    -35.21677044	     13.47183101	      2.31872688	     -4.78647103	      1.02815539	     -4.15609612
      1.31000000	      0.44971571	     -2.37449588	      5.08432404	     -0.60380636	      1.07448972	      1.15367443	     -0.40648534	      5.67878291	     -6.55253357	    -14.33263551	     16.68400641	     -4.55100607	     11.94489408	     -2.82327429	      5.89313311	    -36.91877246	     12.79215066	      2.55151095	     -5.02043368	      1.13794086	     -3.95916703
      1.32000000	      0.44880068	     -2.45825384	      5.13267999	     -0.60321558	      1.07431628	      1.15454851	     -0.47263205	      5.82297099	     -6.60511102	    -14.25111044	     16.70659630	     -4.42720216	     12.93082036	     -2.80512059	      6.00214987	    -38.57988013	     12.10450966	      2.74550786	     -5.25936367	      1.24572703	     -3.74690385
      1.33000000	      0.45121607	     -2.53996997	      5.16324431	     -0.60246574	      1.07415081	      1.15541939	     -0.57175169	      5.96369147	     -6.65323334	    -14.13098659	     16.73809334	     -4.27905603	     13.89400376	     -2.79499302	      6.04531339	    -40.16704667	     11.43828246	      2.88046555	     -5.49341453	      1.34545710	     -3.50777257
      1.34000000	      0.44533639	     -2.61867460	      5.17438902	     -0.60161539	      1.07396920	      1.15629453	     -0.66882062	      6.09791901	     -6.68049925	    -14.01387549	     16.78793280	     -4.09816262	     14.84702926	     -2.79269584	      6.02224207	    -41.66117932	     10.84206760	      2.94214941	     -5.72066460	      1.43645631	     -3.27235306
      1.35000000	      0.43741720	     -2.69679847	      5.16976252	     -0.60060318	      1.07379592	      1.15716654	     -0.79397704	      6.23069029	     -6.69823197	    -13.85866168	     16.84066729	     -3.90053832	     15.76999808	     -2.80665969	      5.92638162	    -43.02767894	     10.35172095	      2.89645704	     -5.93826440	      1.52068741	     -3.02294110
      1.36000000	      0.43124128	     -2.76972575	      5.14736827	     -0.59941940	      1.07365590	      1.15804064	     -0.95751508	      6.35993725	     -6.68516640	    -13.65419391	     16.86286827	     -3.70793461	     16.65053345	     -2.83485887	      5.75548545	    -44.23921213	      9.97870736	      2.75442825	     -6.14946536	      1.59353539	     -2.76588466
      1.37000000	      0.39080688	     -2.83330140	      5.10743095	     -0.59811958	      1.07347192	      1.15889744	     -1.08799866	      6.47072902	     -6.67226996	    -13.46261200	     16.93444525	     -3.48131722	     17.53413716	     -2.86844237	      5.50704003	    -45.29301309	      9.75790245	      2.48322300	     -6.32097934	      1.65179270	     -2.51622487
      1.38000000	      0.34394292	     -2.87668800	      5.05431700	     -0.59664179	      1.07331285	      1.15973582	     -1.23689603	      6.55835598	     -6.64818229	    -13.24880701	     17.00820007	     -3.25994423	     18.37583276	     -2.89913596	      5.18616277	    -46.16105178	      9.65713147	      2.13947069	     -6.47503945	      1.68370806	     -2.27257433
      1.39000000	      0.26999595	     -2.88994063	      4.99892789	     -0.59502446	      1.07314129	      1.16053266	     -1.36576470	      6.60781788	     -6.63526437	    -13.04143172	     17.09751635	     -3.00979507	     19.20113142	     -2.90809876	      4.80325834	    -46.83953091	      9.64403656	      1.69049857	     -6.59474121	      1.68082791	     -2.07870133
      1.40000000	      0.20693227	     -2.89384731	      4.91462974	     -0.59322883	      1.07302386	      1.16134232	     -1.53665068	      6.65098531	     -6.57989245	    -12.79710929	     17.16538375	     -2.81138745	     19.95931977	     -2.92587451	      4.35942344	    -47.31852740	      9.71243103	      1.33435203	     -6.71865552	      1.66271083	     -1.83810182
      1.41000000	      0.12510964	     -2.86780326	      4.83151196	     -0.59129302	      1.07289571	      1.16209458	     -1.69085843	      6.65661641	     -6.53955795	    -12.56890214	     17.25550203	     -2.59986355	     20.69157842	     -2.91598324	      3.87119136	    -47.60758192	      9.80460551	      0.96238842	     -6.81691902	      1.61496816	     -1.64699297
      1.42000000	      0.04015494	     -2.82024270	      4.75600703	     -0.58921829	      1.07277452	      1.16279191	     -1.84695371	      6.63782530	     -6.50341848	    -12.35033820	     17.34684550	     -2.38539443	     21.38208832	     -2.88319506	      3.35771392	    -47.71121388	      9.90386618	      0.61730355	     -6.90838064	      1.54681899	     -1.50767986
      1.43000000	     -0.04171195	     -2.74766654	      4.66020806	     -0.58697770	      1.07266699	      1.16347351	     -2.01659988	      6.59140363	     -6.45711459	    -12.13386984	     17.44306966	     -2.23176625	     22.01210188	     -2.82433762	      2.82355600	    -47.62922972	     10.02776290	      0.41483348	     -6.99902857	      1.44770337	     -1.33888550
      1.44000000	     -0.12787685	     -2.65126234	      4.57946518	     -0.58460461	      1.07255215	      1.16407497	     -2.18409437	      6.51770293	     -6.41298653	    -11.92920502	     17.51107859	     -2.11382478	     22.59959271	     -2.72313529	      2.30408492	    -47.37557842	     10.14886469	      0.28791477	     -7.08334672	      1.32887756	     -1.23690272
      1.45000000	     -0.22211103	     -2.54891166	      4.47031498	     -0.58210071	      1.07241219	      1.16468796	     -2.33138205	      6.43265519	     -6.37402979	    -11.76082819	     17.60793939	     -1.98473205	     23.15082126	     -2.61662825	      1.76841619	    -46.96555455	     10.17083877	      0.17261821	     -7.15945703	      1.19667748	     -1.08752824
      1.46000000	     -0.31853396	     -2.42874674	      4.37192707	     -0.57945546	      1.07225636	      1.16520005	     -2.47697440	      6.32459304	     -6.33218518	    -11.60759304	     17.66578871	     -1.89891928	     23.65538614	     -2.46520093	      1.27078389	    -46.40122937	     10.18437236	      0.12402169	     -7.23127348	      1.05676201	     -0.99843717
      1.47000000	     -0.41426904	     -2.29544719	      4.25995017	     -0.57668440	      1.07206938	      1.16569214	     -2.61354926	      6.19897509	     -6.29064457	    -11.48661122	     17.74494945	     -1.83677954	     24.11862425	     -2.28942792	      0.78815600	    -45.70684382	     10.13685674	      0.11274350	     -7.30803528	      0.89791056	     -0.88926023
      1.48000000	     -0.49484105	     -2.14990158	      4.13190430	     -0.57376787	      1.07186427	      1.16611926	     -2.75724211	      6.05347387	     -6.25362021	    -11.40002558	     17.86643799	     -1.79569052	     24.52195358	     -2.08830060	      0.32135270	    -44.88796223	     10.04836020	      0.12927859	     -7.40164470	      0.73228163	     -0.75533326
      1.49000000	     -0.57637409	     -1.98874026	      4.01009788	     -0.57071353	      1.07162905	      1.16647262	     -2.89618116	      5.88743255	     -6.21971408	    -11.33437443	     17.96705375	     -1.78401312	     24.88402203	     -1.84634858	     -0.09650420	    -43.95052705	      9.93356092	      0.18294848	     -7.49498365	      0.55260946	     -0.64930771
      1.50000000	     -0.65038197	     -1.81503711	      3.88760635	     -0.56751333	      1.07136129	      1.16675261	     -3.03640937	      5.70271893	     -6.19470911	    -11.29721660	     18.08466013	     -1.79082287	     25.19848506	     -1.57306397	     -0.47724201	    -42.90858914	      9.79264060	      0.26665682	     -7.59635772	      0.36361853	     -0.54592451
      1.51000000	     -0.71818572	     -1.63343894	      3.76964892	     -0.56415736	      1.07105401	      1.16695350	     -3.17891512	      5.50451142	     -6.18277875	    -11.28516065	     18.21738391	     -1.80771207	     25.46997567	     -1.27306327	     -0.81548129	    -41.77451352	      9.62923707	      0.37275616	     -7.70115942	      0.16995725	     -0.44809221
      1.52000000	     -0.75600443	     -1.43610773	      3.65233422	     -0.56063002	      1.07074705	      1.16708247	     -3.35634353	      5.28756530	     -6.15963603	    -11.28799095	     18.34918545	     -1.83388000	     25.66672272	     -0.94374339	     -1.11926169	    -40.54890024	      9.46552073	      0.50811931	     -7.83717929	     -0.03601741	     -0.35580092
      1.53000000	     -0.83953311	     -1.24374360	      3.55350102	     -0.55696027	      1.07030379	      1.16712324	     -3.47024297	      5.06802775	     -6.17920267	    -11.33371462	     18.51576534	     -1.85757641	     25.89275531	     -0.60084675	     -1.38582053	    -39.26796078	      9.24461226	      0.62433469	     -7.91337985	     -0.23526670	     -0.28199320
      1.54000000	     -0.89296707	     -1.03733235	      3.45326861	     -0.55311149	      1.06985359	      1.16709251	     -3.61962083	      4.83245635	     -6.18168880	    -11.39417630	     18.69005076	     -1.89150007	     26.04421629	     -0.23573532	     -1.62611795	    -37.91432782	      9.03463305	      0.75485536	     -8.01805411	     -0.44604823	     -0.20261484
      1.55000000	     -0.94022393	     -0.82584748	      3.36210859	     -0.54908132	      1.06935905	      1.16699164	     -3.77728978	      4.59108319	     -6.17980096	    -11.47165652	     18.86323650	     -1.93572219	     26.15352753	      0.14286429	     -1.83726909	    -36.50402177	      8.81826887	      0.88173473	     -8.12104259	     -0.65829908	     -0.14304804
      1.56000000	     -0.97088963	     -0.60453253	      3.27837199	     -0.54484646	      1.06884072	      1.16684939	     -3.96639729	      4.34282695	     -6.16610160	    -11.54411701	     19.02726642	     -2.00149253	     26.20385059	      0.53464618	     -2.02251893	    -35.03866206	      8.60508864	      1.00193336	     -8.23274998	     -0.88459357	     -0.09997214
